<svg aria-hidden="true" style="position:absolute;width:0;height:0;overflow:hidden" version="1.1" xmlns="http://www.w3.org/2000/svg" xmlns:xlink="http://www.w3.org/1999/xlink">
    <defs>
        <symbol id="1" viewBox="0 0 32 32">
            <title>
                1
            </title>
            <path fill="#000" style="fill:var(--color1, #000)" d="M0 32h16c8.837 0 16-7.311 16-16.33h-16c-0.151 0-0.303 0-0.452 0.007-0.169-8.687-7.065-15.677-15.548-15.677v16c-0 0.011-0 0.023-0 0.035 0 2.915 0.766 5.651 2.107 8.018l-0.042-0.081c-1.299 2.305-2.065 5.061-2.065 7.995 0 0.011 0 0.023 0 0.034v-0.002z"/>
            <path fill="#ffe67a" opacity="0.6" style="fill:var(--color2, #ffe67a)" d="M16 32v0c8.837 0 16-7.311 16-16.33h-16c-8.836 0-16 7.312-16 16.33z"/>
            <path fill="#d7cd62" opacity="0.85" style="fill:var(--color3, #d7cd62)" d="M0 16v0c0 8.836 6.962 16 15.551 16v-16c0-8.836-6.963-16-15.551-16z"/>
        </symbol>
        <symbol id="3" viewBox="0 0 32 32">
            <title>
                3
            </title>
            <path fill="#000" style="fill:var(--color1, #000)" d="M16 16.024v0h0.281c0.010 8.827 7.044 15.98 15.719 15.98v-16.003c0-0.010 0-0.021 0-0.033 0-2.94-0.786-5.697-2.159-8.071l0.041 0.078c1.332-2.281 2.118-5.021 2.118-7.946 0-0.010 0-0.020-0-0.029v0.002h-16c-8.836 0-16 7.174-16 16.024z"/>
            <path fill="#d0b472" opacity="0.3" style="fill:var(--color4, #d0b472)" d="M16.275 16v0c0 8.837 7.040 16 15.725 16v-16c0-8.836-7.040-16-15.725-16z"/>
            <path fill="#ffe67a" opacity="0.6" style="fill:var(--color2, #ffe67a)" d="M16 0v0c-8.836 0.001-15.999 7.164-16 16v0h16c0 0 0.001 0 0.001 0 8.836 0 15.999-7.163 15.999-15.999 0-0 0-0.001 0-0.001v0z"/>
        </symbol>
        <symbol id="5" viewBox="0 0 32 32">
            <title>
                5
            </title>
            <path fill="#000" style="fill:var(--color1, #000)" d="M16 32c8.837 0 16-7.093 16-15.843h-16v-0.157c0-8.837-7.163-16-16-16v0 16c0 0.008-0 0.018-0 0.028 0 2.954 0.804 5.721 2.205 8.092l-0.041-0.074c-1.36 2.273-2.164 5.014-2.164 7.942 0 0.004 0 0.008 0 0.012v-0.001z"/>
            <path fill="#d0b472" opacity="0.3" style="fill:var(--color4, #d0b472)" d="M16 16.157v0c-8.836 0-16 7.099-16 15.843h16c8.837 0 16-7.093 16-15.843z"/>
            <path fill="#d7cd62" opacity="0.85" style="fill:var(--color3, #d7cd62)" d="M16 16v0c0-8.837-7.163-16-16-16v0 16c0 8.837 7.163 16 16 16v0z"/>
        </symbol>
        <symbol id="2" viewBox="0 0 32 32">
            <title>
                2
            </title>
            <path fill="#000" style="fill:var(--color1, #000)" d="M0 16.113v0c0.060 8.782 7.189 15.878 15.977 15.887h0.001l0.015-15.873c8.832 0.008 15.999-7.199 16.008-16.098l-15.993-0.015c-0.008 0-0.017-0-0.026-0-2.931 0-5.677 0.796-8.032 2.184l0.074-0.040c-2.293-1.357-5.054-2.159-8.002-2.159-0.002 0-0.005 0-0.007 0h0l-0.015 15.992c0 0.020 0 0.039 0 0.059s0 0.041 0 0.062z"/>
            <path fill="#d7cd62" opacity="0.85" style="fill:var(--color3, #d7cd62)" d="M0 15.992v0c0 0.004 0 0.009 0 0.014 0 8.828 7.151 15.985 15.977 15.994h0.001l0.015-15.993c0-0.005 0-0.010 0-0.016 0-8.827-7.152-15.983-15.977-15.991h-0.001z"/>
            <path fill="#fff" opacity="0.55" style="fill:var(--color5, #fff)" d="M15.992 16.128v0c8.832 0.008 15.999-7.199 16.008-16.098l-15.993-0.015c-8.832-0.008-15.999 7.199-16.007 16.098z"/>
        </symbol>
        <symbol id="4" viewBox="0 0 32 32">
            <title>
                4
            </title>
            <path fill="#000" style="fill:var(--color1, #000)" d="M15.97 16.026v0c0 0.094 0 0.187 0 0.281-8.807 0.010-15.946 7.031-15.946 15.689h15.97c0.009 0 0.019 0 0.029 0 2.935 0 5.686-0.785 8.056-2.155l-0.078 0.041c2.277 1.329 5.012 2.114 7.931 2.114 0.010 0 0.019 0 0.029-0h-0.001v-15.97c0.005-8.819-7.156-15.97-15.989-15.97z"/>
            <path fill="#ffe67a" opacity="0.6" style="fill:var(--color2, #ffe67a)" d="M15.97 16.306v0c-8.819 0-15.97 7.024-15.97 15.689h15.97c8.82 0 15.97-7.024 15.97-15.689z"/>
            <path fill="#fff" opacity="0.55" style="fill:var(--color5, #fff)" d="M31.939 16.026v0c0-8.819-7.159-15.97-15.992-15.97v15.97c0 8.82 7.159 15.97 15.992 15.97z"/>
        </symbol>
        <symbol id="6" viewBox="0 0 32 32">
            <title>
                6
            </title>
            <path fill="#000" style="fill:var(--color1, #000)" d="M0 16.011v0.012c0.012 8.826 7.048 15.976 15.726 15.976v-15.976h0.274c8.836 0 16-7.174 16-16.024h-16c-0.007 0-0.015-0-0.023-0-2.965 0-5.74 0.811-8.116 2.224l0.073-0.040c-2.262-1.372-4.995-2.183-7.918-2.183-0.006 0-0.011 0-0.017 0h0.001v16z"/>
            <path fill="#d0b472" opacity="0.3" style="fill:var(--color4, #d0b472)" d="M15.726 16v0c0-8.836-7.041-16-15.726-16v16c0 8.836 7.041 16 15.726 16z"/>
            <path fill="#fff" opacity="0.55" style="fill:var(--color5, #fff)" d="M16 0v0c-8.836 0-16 7.174-16 16.024h16c8.836 0 16-7.174 16-16.024z"/>
        </symbol>
        <symbol id="idd" viewBox="0 0 32 32">
            <title>
                idd
            </title>
            <path fill="#fff" style="fill:var(--color5, #fff)" d="M31.879 16c0 8.77-7.109 15.879-15.879 15.879s-15.879-7.109-15.879-15.879c0-8.77 7.109-15.879 15.879-15.879s15.879 7.109 15.879 15.879z"/>
            <path fill="#000" style="fill:var(--color1, #000)" d="M10.263 9.939c0.283-0.848 0.525-2.222 0.606-3.152l0.323 0.040c-0.081 0.929-0.242 2.303-0.606 3.192l-0.323-0.081zM11.758 4.444h0.364v11.232h-0.364v-11.232zM12.889 6.384c0.283 0.566 0.566 1.293 0.646 1.737l-0.323 0.202c-0.121-0.444-0.404-1.253-0.646-1.818l0.323-0.121zM21.616 8.566v0.364h-8.081v-0.364h3.838v-1.212h-3.232v-0.364h3.232v-1.091h-3.475v-0.364h3.475v-1.091h0.364v1.131h3.556v0.364h-3.556v1.091h3.273v0.364h-3.273v1.212h3.879zM20.485 15.030c0 0.283-0.081 0.404-0.323 0.485s-0.768 0.081-1.657 0.081c-0.040-0.081-0.081-0.242-0.162-0.323 0.768 0.040 1.374 0.040 1.535 0 0.202 0 0.242-0.081 0.242-0.242v-1.414h-5.253v2.020h-0.364v-5.737h6.020v5.131zM14.869 10.263v1.293h5.293v-1.293h-5.293zM20.121 13.253v-1.333h-5.253v1.333h5.253z"/>
            <path fill="#000" style="fill:var(--color1, #000)" d="M12.081 21.576h7.919c0.242 0 0.525 0 0.768-0.040v0.444c-0.242 0-0.525-0.040-0.768-0.040h-3.515c-0.040 1.333-0.242 2.545-0.768 3.515-0.444 0.768-1.374 1.576-2.343 2.101l-0.364-0.283c1.010-0.444 1.899-1.131 2.343-1.98 0.566-0.929 0.768-2.061 0.768-3.313h-4.040c-0.364 0-0.606 0-0.929 0.040v-0.444c0.323 0 0.566 0 0.929 0zM13.535 18.626h4.404c0.283 0 0.687 0 0.97-0.040v0.444c-0.283-0.040-0.687-0.040-0.97-0.040h-4.364c-0.404 0-0.646 0-0.929 0.040v-0.444c0.283 0 0.525 0.040 0.889 0.040zM20.444 19.111l-0.323 0.162c-0.242-0.485-0.687-1.212-1.010-1.657l0.323-0.162c0.323 0.404 0.768 1.091 1.010 1.657zM21.737 18.667l-0.323 0.162c-0.283-0.525-0.687-1.212-1.010-1.657l0.323-0.162c0.283 0.444 0.768 1.172 1.010 1.657z"/>
        </symbol>
        <symbol id="twitter" viewBox="0 0 32 32">
            <title>
                twitter
            </title>
            <circle fill="#fff" style="fill:#fff" cx="16" cy="16" r="16"/>
            <path d="M28.5,9.2c-0.9,0.4-1.9,0.7-2.9,0.8c1.1-0.6,1.9-1.6,2.3-2.8c-1,0.6-2.1,1-3.3,1.2c-0.9-1-2.3-1.6-3.8-1.6
	c-2.8,0-5.1,2.3-5.1,5.1c0,0.4,0,0.8,0.1,1.2c-4.3-0.2-8.1-2.3-10.6-5.4c-0.4,0.8-0.7,1.6-0.7,2.6c0,1.8,0.9,3.4,2.3,4.3
	c-0.8,0-1.6-0.3-2.3-0.6c0,0,0,0,0,0.1c0,2.5,1.8,4.6,4.1,5c-0.4,0.1-0.9,0.2-1.4,0.2c-0.3,0-0.7,0-1-0.1c0.7,2,2.6,3.5,4.8,3.6
	c-1.8,1.4-4,2.2-6.4,2.2c-0.4,0-0.8,0-1.2-0.1c2.3,1.5,5,2.3,7.9,2.3c9.5,0,14.6-7.8,14.6-14.6c0-0.2,0-0.4,0-0.7
	C27,11.2,27.8,10.3,28.5,9.2L28.5,9.2z"/>
        </symbol>
        <symbol id="instagram" viewBox="0 0 32 32">
            <title>
                instagram
            </title>
            <circle fill="#fff" style="fill:#fff" cx="16" cy="16" r="16"/>
            <path d="M16,5.7c3.4,0,3.8,0,5.1,0.1C22.3,5.8,23,6,23.4,6.2c0.6,0.2,1,0.5,1.4,0.9c0.4,0.4,0.7,0.9,0.9,1.4
	c0.2,0.4,0.4,1.1,0.4,2.3c0.1,1.3,0.1,1.7,0.1,5.1s0,3.8-0.1,5.1c-0.1,1.2-0.3,1.9-0.4,2.3c-0.2,0.6-0.5,1-0.9,1.4
	c-0.4,0.4-0.9,0.7-1.4,0.9c-0.4,0.2-1.1,0.4-2.3,0.4c-1.3,0.1-1.7,0.1-5.1,0.1s-3.8,0-5.1-0.1C9.7,26.2,9,26,8.6,25.8
	c-0.6-0.2-1-0.5-1.4-0.9c-0.4-0.4-0.7-0.9-0.9-1.4C6,23,5.8,22.3,5.8,21.1c-0.1-1.3-0.1-1.7-0.1-5.1s0-3.8,0.1-5.1
	C5.8,9.7,6,9,6.2,8.6c0.2-0.6,0.5-1,0.9-1.4C7.6,6.7,8,6.4,8.6,6.2C9,6,9.7,5.8,10.9,5.8C12.2,5.7,12.6,5.7,16,5.7L16,5.7z M16,3.4
	c-3.4,0-3.8,0-5.2,0.1C9.5,3.5,8.6,3.8,7.8,4.1C6.9,4.4,6.2,4.8,5.5,5.5C4.8,6.2,4.4,6.9,4.1,7.8c-0.3,0.8-0.5,1.7-0.6,3.1
	c-0.1,1.3-0.1,1.8-0.1,5.2s0,3.8,0.1,5.2c0.1,1.3,0.3,2.3,0.6,3.1c0.3,0.8,0.8,1.5,1.5,2.2c0.7,0.7,1.4,1.1,2.2,1.5
	c0.8,0.3,1.7,0.5,3.1,0.6c1.3,0.1,1.8,0.1,5.2,0.1s3.8,0,5.2-0.1c1.3-0.1,2.3-0.3,3.1-0.6c0.8-0.3,1.5-0.8,2.2-1.5
	c0.7-0.7,1.1-1.4,1.5-2.2c0.3-0.8,0.5-1.7,0.6-3.1c0.1-1.3,0.1-1.8,0.1-5.2s0-3.8-0.1-5.2c-0.1-1.3-0.3-2.3-0.6-3.1
	c-0.3-0.8-0.7-1.5-1.4-2.2c-0.7-0.7-1.4-1.1-2.2-1.5c-0.8-0.3-1.7-0.5-3.1-0.6C19.8,3.4,19.4,3.4,16,3.4L16,3.4L16,3.4z"/>
            <path d="M16,9.5c-3.6,0-6.5,2.9-6.5,6.5s2.9,6.5,6.5,6.5s6.5-2.9,6.5-6.5C22.5,12.4,19.6,9.5,16,9.5z M16,20.2
	c-2.3,0-4.2-1.9-4.2-4.2s1.9-4.2,4.2-4.2s4.2,1.9,4.2,4.2S18.3,20.2,16,20.2z"/>
            <path d="M24.2,9.3c0,0.8-0.7,1.5-1.5,1.5c-0.8,0-1.5-0.7-1.5-1.5s0.7-1.5,1.5-1.5C23.6,7.8,24.2,8.4,24.2,9.3z"/>
        </symbol>
        <symbol id="down" viewBox="0 0 64 64">
            <title>
                down
            </title>
            <style>
                .st0{fill-rule:evenodd;clip-rule:evenodd;fill:#c3b85f}
            </style>
            <path class="st0" d="M4.1,0C4.4,0,4.7,0.1,5,0.2L24.5,10L44,0.2c0.5-0.2,1-0.3,1.6-0.1c0.5,0.2,0.9,0.5,1.2,1c0.2,0.5,0.3,1,0.1,1.6
                    c-0.2,0.5-0.5,0.9-1,1.2L25.4,14.1c-0.3,0.1-0.6,0.2-0.9,0.2c-0.3,0-0.6-0.1-0.9-0.2L3.2,3.9c-0.4-0.2-0.7-0.5-0.9-1
                    C2.1,2.5,2,2,2.1,1.6c0.1-0.4,0.4-0.8,0.7-1.1C3.2,0.2,3.7,0,4.1,0z"/>
            <path class="st0" d="M4.1,13.5c0.6,0,1.2,0.1,1.8,0.4l18.6,9.3L43.1,14c1-0.5,2.1-0.6,3.1-0.2c1,0.3,1.9,1.1,2.4,2
                    c0.5,1,0.6,2.1,0.2,3.1c-0.3,1-1.1,1.9-2,2.4L26.3,31.4c-0.6,0.3-1.2,0.4-1.8,0.4c-0.6,0-1.3-0.1-1.8-0.4L2.3,21.3
                    c-0.8-0.4-1.5-1.1-1.9-1.9c-0.4-0.8-0.5-1.8-0.3-2.7c0.2-0.9,0.7-1.7,1.4-2.3C2.3,13.8,3.2,13.5,4.1,13.5z"/>
        </symbol>
    </defs>
</svg>
